<svg xmlns="http://www.w3.org/2000/svg" xmlns:xlink="http://www.w3.org/1999/xlink" width="500" zoomAndPan="magnify" viewBox="0 0 375 374.999991" height="500" preserveAspectRatio="xMidYMid meet" version="1.2"><defs><clipPath id="a5982e5198"><path d="M 87.789062 190 L 170 190 L 170 353.277344 L 87.789062 353.277344 Z M 87.789062 190 "/></clipPath><clipPath id="1c32014b80"><path d="M 205 190 L 287.289062 190 L 287.289062 353.277344 L 205 353.277344 Z M 205 190 "/></clipPath></defs><g id="1d1344cf44"><path style=" stroke:none;fill-rule:evenodd;fill:#ffffff;fill-opacity:1;" d="M 249.648438 98.277344 C 258 100.941406 262.890625 104.167969 262.890625 107.644531 C 262.890625 116.785156 229.136719 124.191406 187.496094 124.191406 C 145.855469 124.191406 112.101562 116.785156 112.101562 107.644531 C 112.101562 104.167969 116.992188 100.941406 125.34375 98.277344 C 133.789062 103.960938 158.421875 108.074219 187.496094 108.074219 C 216.570312 108.074219 241.203125 103.960938 249.648438 98.277344 Z M 166.039062 38.515625 C 171.570312 40.273438 211.289062 41.359375 217.90625 39.289062 C 224.523438 37.222656 219.765625 29.878906 215.21875 29.359375 C 210.667969 28.84375 217.753906 32.933594 213.046875 34.53125 C 202.394531 38.152344 163.347656 36.757812 166.039062 38.515625 Z M 140.867188 94.113281 L 145.921875 33.183594 C 146.316406 28.421875 149.855469 24.972656 154.609375 24.496094 C 181.589844 21.789062 193.402344 21.773438 220.382812 24.496094 C 225.136719 24.976562 228.679688 28.421875 229.070312 33.183594 L 234.125 94.113281 C 222.273438 96.730469 205.761719 98.351562 187.496094 98.351562 C 169.230469 98.351562 152.71875 96.730469 140.867188 94.113281 Z M 140.867188 94.113281 "/><g clip-rule="nonzero" clip-path="url(#a5982e5198)"><path style=" stroke:none;fill-rule:evenodd;fill:#ffffff;fill-opacity:1;" d="M 136.867188 190.96875 L 87.789062 229.199219 L 124.46875 231.785156 L 101.734375 249.347656 L 169.414062 353.191406 Z M 136.867188 190.96875 "/></g><g clip-rule="nonzero" clip-path="url(#1c32014b80)"><path style=" stroke:none;fill-rule:evenodd;fill:#ffffff;fill-opacity:1;" d="M 238.125 190.96875 L 287.207031 229.199219 L 250.523438 231.785156 L 273.257812 249.347656 L 205.578125 353.191406 Z M 238.125 190.96875 "/></g><path style=" stroke:none;fill-rule:evenodd;fill:#ff8400;fill-opacity:1;" d="M 147.277344 196.226562 L 155.765625 204.148438 L 174.5625 180.585938 L 179.613281 186.425781 L 195.378906 186.425781 L 200.429688 180.585938 L 219.226562 204.148438 L 227.714844 196.226562 L 218.214844 211.027344 L 205.683594 196.539062 L 195.378906 209.152344 L 212.554688 263.367188 L 187.496094 300.480469 L 162.4375 263.367188 L 179.613281 209.152344 L 169.308594 196.539062 L 156.777344 211.027344 Z M 147.277344 196.226562 "/></g></svg>