<svg xmlns="http://www.w3.org/2000/svg" xmlns:xlink="http://www.w3.org/1999/xlink" width="500" zoomAndPan="magnify" viewBox="0 0 375 374.999991" height="500" preserveAspectRatio="xMidYMid meet" version="1.2"><defs><clipPath id="666d8adf5d"><path d="M 87.789062 190 L 170 190 L 170 353.28125 L 87.789062 353.28125 Z M 87.789062 190 "/></clipPath><clipPath id="a1be9718e7"><path d="M 205 190 L 287.289062 190 L 287.289062 353.28125 L 205 353.28125 Z M 205 190 "/></clipPath></defs><g id="7e2f248eac"><path style=" stroke:none;fill-rule:evenodd;fill:#000000;fill-opacity:1;" d="M 249.652344 98.277344 C 258.003906 100.941406 262.890625 104.167969 262.890625 107.644531 C 262.890625 116.785156 229.136719 124.191406 187.5 124.191406 C 145.859375 124.191406 112.105469 116.785156 112.105469 107.644531 C 112.105469 104.167969 116.996094 100.941406 125.347656 98.277344 C 133.792969 103.960938 158.421875 108.074219 187.5 108.074219 C 216.574219 108.074219 241.207031 103.960938 249.652344 98.277344 Z M 166.042969 38.515625 C 171.574219 40.273438 211.289062 41.355469 217.910156 39.289062 C 224.527344 37.21875 219.769531 29.878906 215.21875 29.359375 C 210.667969 28.84375 217.757812 32.929688 213.050781 34.53125 C 202.394531 38.152344 163.351562 36.757812 166.042969 38.515625 Z M 140.871094 94.113281 L 145.925781 33.183594 C 146.320312 28.421875 149.855469 24.972656 154.609375 24.496094 C 181.59375 21.789062 193.40625 21.773438 220.386719 24.496094 C 225.140625 24.976562 228.679688 28.421875 229.074219 33.183594 L 234.125 94.113281 C 222.277344 96.726562 205.765625 98.351562 187.5 98.351562 C 169.234375 98.351562 152.71875 96.726562 140.871094 94.113281 Z M 140.871094 94.113281 "/><g clip-rule="nonzero" clip-path="url(#666d8adf5d)"><path style=" stroke:none;fill-rule:evenodd;fill:#000000;fill-opacity:1;" d="M 136.867188 190.96875 L 87.789062 229.199219 L 124.46875 231.78125 L 101.738281 249.347656 L 169.414062 353.1875 Z M 136.867188 190.96875 "/></g><g clip-rule="nonzero" clip-path="url(#a1be9718e7)"><path style=" stroke:none;fill-rule:evenodd;fill:#000000;fill-opacity:1;" d="M 238.128906 190.96875 L 287.207031 229.199219 L 250.527344 231.78125 L 273.257812 249.347656 L 205.582031 353.1875 Z M 238.128906 190.96875 "/></g><path style=" stroke:none;fill-rule:evenodd;fill:#ff8400;fill-opacity:1;" d="M 147.28125 196.222656 L 155.769531 204.148438 L 174.5625 180.585938 L 179.617188 186.425781 L 195.382812 186.425781 L 200.433594 180.585938 L 219.230469 204.148438 L 227.714844 196.222656 L 218.214844 211.027344 L 205.6875 196.535156 L 195.378906 209.152344 L 212.558594 263.363281 L 187.5 300.476562 L 162.4375 263.363281 L 179.617188 209.152344 L 169.3125 196.535156 L 156.78125 211.027344 Z M 147.28125 196.222656 "/></g></svg>