<svg xmlns="http://www.w3.org/2000/svg" xmlns:xlink="http://www.w3.org/1999/xlink" width="500" zoomAndPan="magnify" viewBox="0 0 375 225" height="300" preserveAspectRatio="xMidYMid meet" version="1.2"><defs><clipPath id="c09b0caa58"><path d="M 29 51.457031 L 85 51.457031 L 85 90 L 29 90 Z M 29 51.457031 "/></clipPath><clipPath id="672a9c2af0"><path d="M 20.378906 113 L 51 113 L 51 173.691406 L 20.378906 173.691406 Z M 20.378906 113 "/></clipPath><clipPath id="f0e8ce359d"><path d="M 63 113 L 93.878906 113 L 93.878906 173.691406 L 63 173.691406 Z M 63 113 "/></clipPath></defs><g id="4ab455ba8a"><g style="fill:#000000;fill-opacity:1;"><g transform="translate(100.603525, 126.451471)"><path style="stroke:none" d="M 14.71875 -28.09375 L 14.71875 -24.546875 C 14.71875 -24.035156 14.53125 -23.78125 14.15625 -23.78125 L 7.046875 -23.78125 L 7.046875 -16.671875 L 12.53125 -16.671875 C 12.695312 -16.671875 12.84375 -16.617188 12.96875 -16.515625 C 13.09375 -16.410156 13.15625 -16.21875 13.15625 -15.9375 L 13.15625 -12.40625 C 13.15625 -11.914062 12.945312 -11.671875 12.53125 -11.671875 L 7.046875 -11.671875 L 7.046875 -0.796875 C 7.046875 -0.265625 6.820312 0 6.375 0 L 2.203125 0 C 1.734375 0 1.5 -0.265625 1.5 -0.796875 L 1.5 -28.03125 C 1.5 -28.570312 1.734375 -28.84375 2.203125 -28.84375 L 14.15625 -28.84375 C 14.53125 -28.84375 14.71875 -28.59375 14.71875 -28.09375 Z M 14.71875 -28.09375 "/></g></g><g style="fill:#000000;fill-opacity:1;"><g transform="translate(120.815804, 126.451471)"><path style="stroke:none" d="M 16.609375 -22.046875 L 16.609375 -6.78125 C 16.609375 -5.644531 16.398438 -4.628906 15.984375 -3.734375 C 15.566406 -2.835938 14.992188 -2.078125 14.265625 -1.453125 C 13.546875 -0.828125 12.710938 -0.351562 11.765625 -0.03125 C 10.828125 0.289062 9.835938 0.453125 8.796875 0.453125 C 7.753906 0.453125 6.765625 0.285156 5.828125 -0.046875 C 4.898438 -0.390625 4.070312 -0.875 3.34375 -1.5 C 2.625 -2.125 2.0625 -2.882812 1.65625 -3.78125 C 1.25 -4.675781 1.046875 -5.675781 1.046875 -6.78125 L 1.046875 -22.046875 C 1.046875 -23.171875 1.25 -24.179688 1.65625 -25.078125 C 2.0625 -25.972656 2.625 -26.734375 3.34375 -27.359375 C 4.070312 -27.992188 4.898438 -28.472656 5.828125 -28.796875 C 6.765625 -29.117188 7.753906 -29.28125 8.796875 -29.28125 C 9.835938 -29.28125 10.828125 -29.117188 11.765625 -28.796875 C 12.710938 -28.472656 13.546875 -27.992188 14.265625 -27.359375 C 14.992188 -26.734375 15.566406 -25.976562 15.984375 -25.09375 C 16.398438 -24.207031 16.609375 -23.191406 16.609375 -22.046875 Z M 8.84375 -24.28125 C 8.132812 -24.28125 7.582031 -24.019531 7.1875 -23.5 C 6.789062 -22.988281 6.59375 -22.398438 6.59375 -21.734375 L 6.59375 -7.0625 C 6.59375 -6.414062 6.78125 -5.835938 7.15625 -5.328125 C 7.539062 -4.816406 8.085938 -4.5625 8.796875 -4.5625 C 9.515625 -4.5625 10.070312 -4.796875 10.46875 -5.265625 C 10.863281 -5.734375 11.0625 -6.289062 11.0625 -6.9375 L 11.0625 -21.734375 C 11.0625 -22.398438 10.863281 -22.988281 10.46875 -23.5 C 10.070312 -24.019531 9.53125 -24.28125 8.84375 -24.28125 Z M 8.84375 -24.28125 "/></g></g><g style="fill:#000000;fill-opacity:1;"><g transform="translate(143.674697, 126.451471)"><path style="stroke:none" d="M 7.046875 -23.78125 L 7.046875 -5.015625 L 9.21875 -5.015625 C 9.90625 -5.046875 10.457031 -5.300781 10.875 -5.78125 C 11.289062 -6.257812 11.5 -6.851562 11.5 -7.5625 L 11.5 -21.21875 C 11.5 -22.09375 11.273438 -22.738281 10.828125 -23.15625 C 10.390625 -23.570312 9.816406 -23.78125 9.109375 -23.78125 Z M 1.5 -0.796875 L 1.5 -28.03125 C 1.5 -28.570312 1.734375 -28.84375 2.203125 -28.84375 L 9.4375 -28.84375 C 10.882812 -28.832031 12.179688 -28.539062 13.328125 -27.96875 C 14.472656 -27.40625 15.378906 -26.578125 16.046875 -25.484375 C 16.710938 -24.390625 17.046875 -23.046875 17.046875 -21.453125 L 17.046875 -7.40625 C 17.046875 -5.800781 16.710938 -4.453125 16.046875 -3.359375 C 15.378906 -2.273438 14.472656 -1.445312 13.328125 -0.875 C 12.179688 -0.300781 10.898438 -0.0078125 9.484375 0 L 2.203125 0 C 1.734375 0 1.5 -0.265625 1.5 -0.796875 Z M 1.5 -0.796875 "/></g></g><g style="fill:#000000;fill-opacity:1;"><g transform="translate(166.971219, 126.451471)"><path style="stroke:none" d="M 7.046875 -28.03125 L 7.046875 -0.796875 C 7.046875 -0.265625 6.816406 0 6.359375 0 L 2.1875 0 C 1.726562 0 1.5 -0.265625 1.5 -0.796875 L 1.5 -28.03125 C 1.5 -28.570312 1.726562 -28.84375 2.1875 -28.84375 L 6.359375 -28.84375 C 6.816406 -28.84375 7.046875 -28.570312 7.046875 -28.03125 Z M 7.046875 -28.03125 "/></g></g><g style="fill:#000000;fill-opacity:1;"><g transform="translate(180.744101, 126.451471)"><path style="stroke:none" d="M 16.21875 0 L 11.984375 0 C 11.773438 0 11.609375 -0.0820312 11.484375 -0.25 C 11.367188 -0.414062 11.3125 -0.609375 11.3125 -0.828125 L 11.3125 -21.765625 C 11.3125 -22.410156 11.117188 -22.988281 10.734375 -23.5 C 10.347656 -24.007812 9.804688 -24.265625 9.109375 -24.265625 C 8.398438 -24.265625 7.847656 -24.007812 7.453125 -23.5 C 7.066406 -22.988281 6.875 -22.410156 6.875 -21.765625 L 6.875 -0.8125 C 6.875 -0.59375 6.828125 -0.398438 6.734375 -0.234375 C 6.648438 -0.078125 6.488281 0 6.25 0 L 1.859375 0 C 1.703125 0 1.570312 -0.078125 1.46875 -0.234375 C 1.363281 -0.398438 1.3125 -0.59375 1.3125 -0.8125 L 1.3125 -22.078125 C 1.3125 -23.078125 1.519531 -24.015625 1.9375 -24.890625 C 2.351562 -25.765625 2.914062 -26.53125 3.625 -27.1875 C 4.34375 -27.851562 5.171875 -28.375 6.109375 -28.75 C 7.054688 -29.125 8.050781 -29.3125 9.09375 -29.3125 C 10.132812 -29.3125 11.125 -29.125 12.0625 -28.75 C 13 -28.375 13.828125 -27.851562 14.546875 -27.1875 C 15.265625 -26.53125 15.832031 -25.765625 16.25 -24.890625 C 16.675781 -24.015625 16.890625 -23.078125 16.890625 -22.078125 L 16.890625 -0.828125 C 16.890625 -0.617188 16.835938 -0.425781 16.734375 -0.25 C 16.628906 -0.0820312 16.457031 0 16.21875 0 Z M 16.21875 0 "/></g></g><g style="fill:#000000;fill-opacity:1;"><g transform="translate(204.14482, 126.451471)"><path style="stroke:none" d="M 12.34375 -28.84375 L 16.484375 -28.84375 C 16.671875 -28.84375 16.832031 -28.785156 16.96875 -28.671875 C 17.101562 -28.566406 17.171875 -28.363281 17.171875 -28.0625 L 17.171875 -0.796875 C 17.171875 -0.265625 16.921875 0 16.421875 0 L 12.34375 0 C 11.863281 0 11.625 -0.265625 11.625 -0.796875 L 11.625 -12.25 L 7.046875 -12.25 L 7.046875 -0.796875 C 7.046875 -0.265625 6.816406 0 6.359375 0 L 2.1875 0 C 1.726562 0 1.5 -0.265625 1.5 -0.796875 L 1.5 -28.03125 C 1.5 -28.570312 1.726562 -28.84375 2.1875 -28.84375 L 6.359375 -28.84375 C 6.816406 -28.84375 7.046875 -28.570312 7.046875 -28.03125 L 7.046875 -17.28125 L 11.625 -17.28125 L 11.625 -28.03125 C 11.625 -28.257812 11.679688 -28.453125 11.796875 -28.609375 C 11.921875 -28.765625 12.101562 -28.84375 12.34375 -28.84375 Z M 12.34375 -28.84375 "/></g></g><g style="fill:#000000;fill-opacity:1;"><g transform="translate(228.045688, 126.451471)"><path style="stroke:none" d="M 6.875 -21.765625 L 6.875 -11.734375 L 11.3125 -11.734375 L 11.3125 -21.765625 C 11.3125 -22.410156 11.117188 -22.988281 10.734375 -23.5 C 10.347656 -24.007812 9.804688 -24.265625 9.109375 -24.265625 C 8.398438 -24.265625 7.847656 -24.007812 7.453125 -23.5 C 7.066406 -22.988281 6.875 -22.410156 6.875 -21.765625 Z M 16.890625 -22.078125 L 16.890625 -0.828125 C 16.890625 -0.617188 16.835938 -0.425781 16.734375 -0.25 C 16.628906 -0.0820312 16.457031 0 16.21875 0 L 11.984375 0 C 11.773438 0 11.609375 -0.0820312 11.484375 -0.25 C 11.367188 -0.414062 11.3125 -0.609375 11.3125 -0.828125 L 11.3125 -6.875 L 6.875 -6.875 L 6.875 -0.8125 C 6.875 -0.59375 6.832031 -0.398438 6.75 -0.234375 C 6.664062 -0.078125 6.5 0 6.25 0 L 1.859375 0 C 1.703125 0 1.570312 -0.078125 1.46875 -0.234375 C 1.363281 -0.398438 1.3125 -0.59375 1.3125 -0.8125 L 1.3125 -22.078125 C 1.3125 -23.078125 1.519531 -24.015625 1.9375 -24.890625 C 2.351562 -25.765625 2.914062 -26.53125 3.625 -27.1875 C 4.34375 -27.851562 5.171875 -28.375 6.109375 -28.75 C 7.054688 -29.125 8.050781 -29.3125 9.09375 -29.3125 C 10.132812 -29.3125 11.125 -29.125 12.0625 -28.75 C 13 -28.375 13.828125 -27.851562 14.546875 -27.1875 C 15.265625 -26.53125 15.832031 -25.765625 16.25 -24.890625 C 16.675781 -24.015625 16.890625 -23.078125 16.890625 -22.078125 Z M 16.890625 -22.078125 "/></g></g><g style="fill:#000000;fill-opacity:1;"><g transform="translate(251.446408, 126.451471)"><path style="stroke:none" d="M 6.5625 -4.140625 L 6.5625 -0.734375 C 6.5625 -0.453125 6.476562 -0.257812 6.3125 -0.15625 C 6.144531 -0.0507812 6.015625 0 5.921875 0 L 2.078125 0 C 1.984375 0 1.851562 -0.046875 1.6875 -0.140625 C 1.53125 -0.242188 1.453125 -0.441406 1.453125 -0.734375 L 1.453125 -4.140625 C 1.453125 -4.410156 1.519531 -4.609375 1.65625 -4.734375 C 1.789062 -4.859375 1.925781 -4.921875 2.0625 -4.921875 L 5.921875 -4.921875 C 6.179688 -4.921875 6.351562 -4.828125 6.4375 -4.640625 C 6.519531 -4.460938 6.5625 -4.296875 6.5625 -4.140625 Z M 6.5625 -4.140625 "/></g></g><g style="fill:#ff8400;fill-opacity:1;"><g transform="translate(264.68651, 126.451471)"><path style="stroke:none" d="M 16.203125 -21.953125 L 16.203125 -19.921875 C 16.203125 -19.609375 16.15625 -19.378906 16.0625 -19.234375 C 15.976562 -19.085938 15.800781 -19.015625 15.53125 -19.015625 L 11.65625 -19.015625 C 11.40625 -19.015625 11.234375 -19.078125 11.140625 -19.203125 C 11.046875 -19.335938 11 -19.550781 11 -19.84375 L 11 -21.78125 C 11 -22.195312 10.914062 -22.59375 10.75 -22.96875 C 10.582031 -23.351562 10.335938 -23.664062 10.015625 -23.90625 C 9.703125 -24.15625 9.316406 -24.28125 8.859375 -24.28125 C 8.179688 -24.28125 7.632812 -24.03125 7.21875 -23.53125 C 6.800781 -23.039062 6.59375 -22.472656 6.59375 -21.828125 L 6.59375 -7.09375 C 6.59375 -6.65625 6.679688 -6.238281 6.859375 -5.84375 C 7.035156 -5.457031 7.296875 -5.144531 7.640625 -4.90625 C 7.984375 -4.675781 8.390625 -4.5625 8.859375 -4.5625 C 9.617188 -4.5625 10.179688 -4.816406 10.546875 -5.328125 C 10.921875 -5.847656 11.109375 -6.4375 11.109375 -7.09375 L 11.109375 -9.5625 C 11.109375 -9.882812 11.148438 -10.097656 11.234375 -10.203125 C 11.328125 -10.316406 11.492188 -10.375 11.734375 -10.375 L 15.625 -10.375 C 15.863281 -10.375 16.039062 -10.328125 16.15625 -10.234375 C 16.269531 -10.140625 16.328125 -9.929688 16.328125 -9.609375 L 16.328125 -6.78125 C 16.328125 -5.269531 15.988281 -3.972656 15.3125 -2.890625 C 14.632812 -1.804688 13.726562 -0.976562 12.59375 -0.40625 C 11.46875 0.164062 10.207031 0.453125 8.8125 0.453125 C 7.769531 0.453125 6.78125 0.289062 5.84375 -0.03125 C 4.90625 -0.351562 4.070312 -0.828125 3.34375 -1.453125 C 2.625 -2.078125 2.0625 -2.835938 1.65625 -3.734375 C 1.25 -4.628906 1.046875 -5.644531 1.046875 -6.78125 L 1.046875 -22.046875 C 1.046875 -23.078125 1.234375 -24.03125 1.609375 -24.90625 C 1.992188 -25.789062 2.53125 -26.5625 3.21875 -27.21875 C 3.914062 -27.875 4.738281 -28.378906 5.6875 -28.734375 C 6.632812 -29.097656 7.675781 -29.28125 8.8125 -29.28125 C 10.082031 -29.28125 11.179688 -29.070312 12.109375 -28.65625 C 13.035156 -28.238281 13.800781 -27.679688 14.40625 -26.984375 C 15.007812 -26.296875 15.457031 -25.515625 15.75 -24.640625 C 16.050781 -23.765625 16.203125 -22.867188 16.203125 -21.953125 Z M 16.203125 -21.953125 "/></g></g><g style="fill:#ff8400;fill-opacity:1;"><g transform="translate(287.003577, 126.451471)"><path style="stroke:none" d="M 14.09375 0 L 2.203125 0 C 1.734375 0 1.5 -0.265625 1.5 -0.796875 L 1.5 -28.03125 C 1.5 -28.570312 1.726562 -28.84375 2.1875 -28.84375 L 6.359375 -28.84375 C 6.816406 -28.84375 7.046875 -28.570312 7.046875 -28.03125 L 7.046875 -5.015625 L 14.09375 -5.015625 C 14.476562 -5.015625 14.671875 -4.78125 14.671875 -4.3125 L 14.671875 -0.75 C 14.671875 -0.25 14.476562 0 14.09375 0 Z M 14.09375 0 "/></g></g><g style="fill:#ff8400;fill-opacity:1;"><g transform="translate(307.340894, 126.451471)"><path style="stroke:none" d="M 11.3125 -7.09375 L 11.3125 -28.015625 C 11.3125 -28.234375 11.367188 -28.425781 11.484375 -28.59375 C 11.597656 -28.757812 11.765625 -28.84375 11.984375 -28.84375 L 16.21875 -28.84375 C 16.457031 -28.84375 16.628906 -28.753906 16.734375 -28.578125 C 16.835938 -28.410156 16.890625 -28.222656 16.890625 -28.015625 L 16.890625 -6.78125 C 16.890625 -5.769531 16.675781 -4.828125 16.25 -3.953125 C 15.832031 -3.078125 15.265625 -2.3125 14.546875 -1.65625 C 13.828125 -1 13 -0.484375 12.0625 -0.109375 C 11.125 0.265625 10.132812 0.453125 9.09375 0.453125 C 8.050781 0.453125 7.054688 0.265625 6.109375 -0.109375 C 5.171875 -0.484375 4.34375 -1 3.625 -1.65625 C 2.914062 -2.3125 2.351562 -3.078125 1.9375 -3.953125 C 1.519531 -4.828125 1.3125 -5.769531 1.3125 -6.78125 L 1.3125 -28.03125 C 1.3125 -28.257812 1.363281 -28.453125 1.46875 -28.609375 C 1.582031 -28.765625 1.710938 -28.84375 1.859375 -28.84375 L 6.25 -28.84375 C 6.5 -28.84375 6.664062 -28.765625 6.75 -28.609375 C 6.832031 -28.453125 6.875 -28.257812 6.875 -28.03125 L 6.875 -7.09375 C 6.875 -6.4375 7.066406 -5.847656 7.453125 -5.328125 C 7.847656 -4.816406 8.398438 -4.5625 9.109375 -4.5625 C 9.578125 -4.5625 9.972656 -4.675781 10.296875 -4.90625 C 10.628906 -5.144531 10.878906 -5.457031 11.046875 -5.84375 C 11.222656 -6.238281 11.3125 -6.65625 11.3125 -7.09375 Z M 11.3125 -7.09375 "/></g></g><g style="fill:#ff8400;fill-opacity:1;"><g transform="translate(330.741613, 126.451471)"><path style="stroke:none" d="M 11.09375 -7.40625 L 11.09375 -9.9375 C 11.09375 -10.832031 10.851562 -11.488281 10.375 -11.90625 C 9.894531 -12.332031 9.34375 -12.546875 8.71875 -12.546875 L 6.65625 -12.546875 L 6.65625 -5.015625 L 8.8125 -5.015625 C 9.3125 -5.015625 9.726562 -5.132812 10.0625 -5.375 C 10.394531 -5.625 10.648438 -5.929688 10.828125 -6.296875 C 11.003906 -6.660156 11.09375 -7.03125 11.09375 -7.40625 Z M 10.90625 -19.265625 L 10.90625 -21.296875 C 10.90625 -22.160156 10.679688 -22.789062 10.234375 -23.1875 C 9.785156 -23.582031 9.222656 -23.78125 8.546875 -23.78125 L 6.65625 -23.78125 L 6.65625 -17.03125 L 8.484375 -17.03125 C 8.785156 -17.03125 9.125 -17.09375 9.5 -17.21875 C 9.875 -17.34375 10.203125 -17.5625 10.484375 -17.875 C 10.765625 -18.195312 10.90625 -18.660156 10.90625 -19.265625 Z M 16.171875 -21.609375 L 16.171875 -19.546875 C 16.171875 -18.773438 16.003906 -18.0625 15.671875 -17.40625 C 15.347656 -16.75 14.953125 -16.203125 14.484375 -15.765625 C 14.015625 -15.335938 13.554688 -15.078125 13.109375 -14.984375 C 13.398438 -14.898438 13.742188 -14.734375 14.140625 -14.484375 C 14.535156 -14.234375 14.925781 -13.882812 15.3125 -13.4375 C 15.707031 -13 16.03125 -12.445312 16.28125 -11.78125 C 16.53125 -11.125 16.65625 -10.34375 16.65625 -9.4375 L 16.65625 -6.859375 C 16.65625 -5.847656 16.457031 -4.921875 16.0625 -4.078125 C 15.664062 -3.234375 15.128906 -2.507812 14.453125 -1.90625 C 13.773438 -1.300781 13.007812 -0.832031 12.15625 -0.5 C 11.300781 -0.164062 10.410156 0 9.484375 0 L 2.203125 0 C 1.734375 0 1.5 -0.265625 1.5 -0.796875 L 1.5 -28.03125 C 1.5 -28.570312 1.734375 -28.84375 2.203125 -28.84375 L 8.84375 -28.84375 C 10.300781 -28.84375 11.578125 -28.523438 12.671875 -27.890625 C 13.765625 -27.265625 14.617188 -26.410156 15.234375 -25.328125 C 15.859375 -24.242188 16.171875 -23.003906 16.171875 -21.609375 Z M 16.171875 -21.609375 "/></g></g><g clip-rule="nonzero" clip-path="url(#c09b0caa58)"><path style=" stroke:none;fill-rule:evenodd;fill:#000000;fill-opacity:1;" d="M 80.007812 79.628906 C 83.082031 80.609375 84.886719 81.800781 84.886719 83.082031 C 84.886719 86.445312 72.449219 89.175781 57.109375 89.175781 C 41.769531 89.175781 29.335938 86.445312 29.335938 83.082031 C 29.335938 81.800781 31.136719 80.609375 34.214844 79.628906 C 37.324219 81.722656 46.398438 83.238281 57.109375 83.238281 C 67.820312 83.238281 76.894531 81.722656 80.007812 79.628906 Z M 49.207031 57.613281 C 51.242188 58.261719 65.875 58.660156 68.3125 57.898438 C 70.75 57.136719 69 54.429688 67.324219 54.242188 C 65.644531 54.050781 68.257812 55.554688 66.523438 56.144531 C 62.597656 57.480469 48.214844 56.964844 49.207031 57.613281 Z M 39.933594 78.09375 L 41.792969 55.648438 C 41.9375 53.894531 43.242188 52.625 44.996094 52.449219 C 54.933594 51.449219 59.285156 51.445312 69.226562 52.449219 C 70.976562 52.625 72.28125 53.894531 72.425781 55.648438 L 74.289062 78.09375 C 69.921875 79.058594 63.839844 79.65625 57.109375 79.65625 C 50.382812 79.65625 44.296875 79.058594 39.933594 78.09375 Z M 39.933594 78.09375 "/></g><g clip-rule="nonzero" clip-path="url(#672a9c2af0)"><path style=" stroke:none;fill-rule:evenodd;fill:#000000;fill-opacity:1;" d="M 38.457031 113.777344 L 20.378906 127.859375 L 33.890625 128.8125 L 25.515625 135.285156 L 50.449219 173.539062 Z M 38.457031 113.777344 "/></g><g clip-rule="nonzero" clip-path="url(#f0e8ce359d)"><path style=" stroke:none;fill-rule:evenodd;fill:#000000;fill-opacity:1;" d="M 75.761719 113.777344 L 93.84375 127.859375 L 80.328125 128.8125 L 88.703125 135.285156 L 63.773438 173.539062 Z M 75.761719 113.777344 "/></g><path style=" stroke:none;fill-rule:evenodd;fill:#ff8400;fill-opacity:1;" d="M 42.292969 115.714844 L 45.421875 118.632812 L 52.34375 109.953125 L 54.207031 112.101562 L 60.015625 112.101562 L 61.875 109.953125 L 68.800781 118.632812 L 71.925781 115.714844 L 68.425781 121.167969 L 63.8125 115.828125 L 60.015625 120.476562 L 66.34375 140.445312 L 57.109375 154.121094 L 47.878906 140.445312 L 54.207031 120.476562 L 50.410156 115.828125 L 45.792969 121.167969 Z M 42.292969 115.714844 "/></g></svg>