<svg xmlns="http://www.w3.org/2000/svg" xmlns:xlink="http://www.w3.org/1999/xlink" width="500" zoomAndPan="magnify" viewBox="0 0 375 374.999991" height="500" preserveAspectRatio="xMidYMid meet" version="1.2"><defs><clipPath id="a65b64f2ef"><path d="M 159 101.410156 L 215 101.410156 L 215 139 L 159 139 Z M 159 101.410156 "/></clipPath><clipPath id="1a19ffd1cc"><path d="M 150.964844 163 L 181 163 L 181 222.898438 L 150.964844 222.898438 Z M 150.964844 163 "/></clipPath><clipPath id="1dfb3ddf84"><path d="M 193 163 L 223.714844 163 L 223.714844 222.898438 L 193 222.898438 Z M 193 163 "/></clipPath></defs><g id="b231edfc0c"><g style="fill:#000000;fill-opacity:1;"><g transform="translate(64.544242, 262.083674)"><path style="stroke:none" d="M 14.640625 -27.9375 L 14.640625 -24.421875 C 14.640625 -23.910156 14.453125 -23.65625 14.078125 -23.65625 L 7 -23.65625 L 7 -16.578125 L 12.453125 -16.578125 C 12.617188 -16.578125 12.765625 -16.523438 12.890625 -16.421875 C 13.015625 -16.316406 13.078125 -16.128906 13.078125 -15.859375 L 13.078125 -12.328125 C 13.078125 -11.847656 12.867188 -11.609375 12.453125 -11.609375 L 7 -11.609375 L 7 -0.78125 C 7 -0.257812 6.78125 0 6.34375 0 L 2.203125 0 C 1.734375 0 1.5 -0.257812 1.5 -0.78125 L 1.5 -27.875 C 1.5 -28.414062 1.734375 -28.6875 2.203125 -28.6875 L 14.078125 -28.6875 C 14.453125 -28.6875 14.640625 -28.4375 14.640625 -27.9375 Z M 14.640625 -27.9375 "/></g></g><g style="fill:#000000;fill-opacity:1;"><g transform="translate(84.645731, 262.083674)"><path style="stroke:none" d="M 16.515625 -21.9375 L 16.515625 -6.734375 C 16.515625 -5.617188 16.304688 -4.613281 15.890625 -3.71875 C 15.484375 -2.832031 14.921875 -2.078125 14.203125 -1.453125 C 13.484375 -0.828125 12.648438 -0.351562 11.703125 -0.03125 C 10.765625 0.289062 9.78125 0.453125 8.75 0.453125 C 7.707031 0.453125 6.722656 0.285156 5.796875 -0.046875 C 4.878906 -0.390625 4.0625 -0.867188 3.34375 -1.484375 C 2.625 -2.109375 2.054688 -2.863281 1.640625 -3.75 C 1.234375 -4.644531 1.03125 -5.640625 1.03125 -6.734375 L 1.03125 -21.9375 C 1.03125 -23.050781 1.234375 -24.050781 1.640625 -24.9375 C 2.054688 -25.832031 2.625 -26.59375 3.34375 -27.21875 C 4.0625 -27.84375 4.878906 -28.316406 5.796875 -28.640625 C 6.722656 -28.960938 7.707031 -29.125 8.75 -29.125 C 9.78125 -29.125 10.765625 -28.960938 11.703125 -28.640625 C 12.648438 -28.316406 13.484375 -27.84375 14.203125 -27.21875 C 14.921875 -26.59375 15.484375 -25.835938 15.890625 -24.953125 C 16.304688 -24.066406 16.515625 -23.0625 16.515625 -21.9375 Z M 8.796875 -24.15625 C 8.085938 -24.15625 7.535156 -23.894531 7.140625 -23.375 C 6.742188 -22.863281 6.546875 -22.28125 6.546875 -21.625 L 6.546875 -7.03125 C 6.546875 -6.375 6.734375 -5.796875 7.109375 -5.296875 C 7.492188 -4.796875 8.039062 -4.546875 8.75 -4.546875 C 9.46875 -4.546875 10.019531 -4.773438 10.40625 -5.234375 C 10.800781 -5.691406 11 -6.25 11 -6.90625 L 11 -21.625 C 11 -22.28125 10.800781 -22.863281 10.40625 -23.375 C 10.019531 -23.894531 9.484375 -24.15625 8.796875 -24.15625 Z M 8.796875 -24.15625 "/></g></g><g style="fill:#000000;fill-opacity:1;"><g transform="translate(107.379326, 262.083674)"><path style="stroke:none" d="M 7 -23.65625 L 7 -5 L 9.15625 -5 C 9.851562 -5.019531 10.40625 -5.269531 10.8125 -5.75 C 11.226562 -6.226562 11.4375 -6.820312 11.4375 -7.53125 L 11.4375 -21.109375 C 11.4375 -21.972656 11.210938 -22.613281 10.765625 -23.03125 C 10.328125 -23.445312 9.757812 -23.65625 9.0625 -23.65625 Z M 1.5 -0.78125 L 1.5 -27.875 C 1.5 -28.414062 1.734375 -28.6875 2.203125 -28.6875 L 9.390625 -28.6875 C 10.828125 -28.675781 12.113281 -28.382812 13.25 -27.8125 C 14.394531 -27.25 15.296875 -26.425781 15.953125 -25.34375 C 16.617188 -24.257812 16.953125 -22.921875 16.953125 -21.328125 L 16.953125 -7.359375 C 16.953125 -5.765625 16.617188 -4.425781 15.953125 -3.34375 C 15.296875 -2.257812 14.394531 -1.429688 13.25 -0.859375 C 12.113281 -0.296875 10.84375 -0.0078125 9.4375 0 L 2.203125 0 C 1.734375 0 1.5 -0.257812 1.5 -0.78125 Z M 1.5 -0.78125 "/></g></g><g style="fill:#000000;fill-opacity:1;"><g transform="translate(130.548151, 262.083674)"><path style="stroke:none" d="M 7 -27.875 L 7 -0.78125 C 7 -0.257812 6.773438 0 6.328125 0 L 2.171875 0 C 1.722656 0 1.5 -0.257812 1.5 -0.78125 L 1.5 -27.875 C 1.5 -28.414062 1.722656 -28.6875 2.171875 -28.6875 L 6.328125 -28.6875 C 6.773438 -28.6875 7 -28.414062 7 -27.875 Z M 7 -27.875 "/></g></g><g style="fill:#000000;fill-opacity:1;"><g transform="translate(144.245538, 262.083674)"><path style="stroke:none" d="M 16.125 0 L 11.921875 0 C 11.710938 0 11.546875 -0.0820312 11.421875 -0.25 C 11.304688 -0.414062 11.25 -0.609375 11.25 -0.828125 L 11.25 -21.640625 C 11.25 -22.285156 11.054688 -22.859375 10.671875 -23.359375 C 10.285156 -23.867188 9.75 -24.125 9.0625 -24.125 C 8.351562 -24.125 7.804688 -23.867188 7.421875 -23.359375 C 7.035156 -22.859375 6.84375 -22.285156 6.84375 -21.640625 L 6.84375 -0.8125 C 6.84375 -0.59375 6.796875 -0.398438 6.703125 -0.234375 C 6.617188 -0.078125 6.457031 0 6.21875 0 L 1.84375 0 C 1.6875 0 1.554688 -0.078125 1.453125 -0.234375 C 1.359375 -0.398438 1.3125 -0.59375 1.3125 -0.8125 L 1.3125 -21.953125 C 1.3125 -22.941406 1.515625 -23.875 1.921875 -24.75 C 2.335938 -25.625 2.898438 -26.390625 3.609375 -27.046875 C 4.328125 -27.703125 5.148438 -28.210938 6.078125 -28.578125 C 7.015625 -28.953125 8 -29.140625 9.03125 -29.140625 C 10.070312 -29.140625 11.054688 -28.953125 11.984375 -28.578125 C 12.921875 -28.210938 13.75 -27.703125 14.46875 -27.046875 C 15.1875 -26.390625 15.753906 -25.625 16.171875 -24.75 C 16.585938 -23.875 16.796875 -22.941406 16.796875 -21.953125 L 16.796875 -0.828125 C 16.796875 -0.617188 16.742188 -0.425781 16.640625 -0.25 C 16.535156 -0.0820312 16.363281 0 16.125 0 Z M 16.125 0 "/></g></g><g style="fill:#000000;fill-opacity:1;"><g transform="translate(167.51799, 262.083674)"><path style="stroke:none" d="M 12.265625 -28.6875 L 16.390625 -28.6875 C 16.578125 -28.6875 16.738281 -28.628906 16.875 -28.515625 C 17.007812 -28.410156 17.078125 -28.207031 17.078125 -27.90625 L 17.078125 -0.78125 C 17.078125 -0.257812 16.828125 0 16.328125 0 L 12.265625 0 C 11.796875 0 11.5625 -0.257812 11.5625 -0.78125 L 11.5625 -12.1875 L 7 -12.1875 L 7 -0.78125 C 7 -0.257812 6.773438 0 6.328125 0 L 2.171875 0 C 1.722656 0 1.5 -0.257812 1.5 -0.78125 L 1.5 -27.875 C 1.5 -28.414062 1.722656 -28.6875 2.171875 -28.6875 L 6.328125 -28.6875 C 6.773438 -28.6875 7 -28.414062 7 -27.875 L 7 -17.1875 L 11.5625 -17.1875 L 11.5625 -27.875 C 11.5625 -28.101562 11.617188 -28.296875 11.734375 -28.453125 C 11.859375 -28.609375 12.035156 -28.6875 12.265625 -28.6875 Z M 12.265625 -28.6875 "/></g></g><g style="fill:#000000;fill-opacity:1;"><g transform="translate(191.287848, 262.083674)"><path style="stroke:none" d="M 6.84375 -21.640625 L 6.84375 -11.671875 L 11.25 -11.671875 L 11.25 -21.640625 C 11.25 -22.285156 11.054688 -22.859375 10.671875 -23.359375 C 10.285156 -23.867188 9.75 -24.125 9.0625 -24.125 C 8.351562 -24.125 7.804688 -23.867188 7.421875 -23.359375 C 7.035156 -22.859375 6.84375 -22.285156 6.84375 -21.640625 Z M 16.796875 -21.953125 L 16.796875 -0.828125 C 16.796875 -0.617188 16.742188 -0.425781 16.640625 -0.25 C 16.535156 -0.0820312 16.363281 0 16.125 0 L 11.921875 0 C 11.710938 0 11.546875 -0.0820312 11.421875 -0.25 C 11.304688 -0.414062 11.25 -0.609375 11.25 -0.828125 L 11.25 -6.84375 L 6.84375 -6.84375 L 6.84375 -0.8125 C 6.84375 -0.59375 6.800781 -0.398438 6.71875 -0.234375 C 6.632812 -0.078125 6.46875 0 6.21875 0 L 1.84375 0 C 1.6875 0 1.554688 -0.078125 1.453125 -0.234375 C 1.359375 -0.398438 1.3125 -0.59375 1.3125 -0.8125 L 1.3125 -21.953125 C 1.3125 -22.941406 1.515625 -23.875 1.921875 -24.75 C 2.335938 -25.625 2.898438 -26.390625 3.609375 -27.046875 C 4.328125 -27.703125 5.148438 -28.210938 6.078125 -28.578125 C 7.015625 -28.953125 8 -29.140625 9.03125 -29.140625 C 10.070312 -29.140625 11.054688 -28.953125 11.984375 -28.578125 C 12.921875 -28.210938 13.75 -27.703125 14.46875 -27.046875 C 15.1875 -26.390625 15.753906 -25.625 16.171875 -24.75 C 16.585938 -23.875 16.796875 -22.941406 16.796875 -21.953125 Z M 16.796875 -21.953125 "/></g></g><g style="fill:#000000;fill-opacity:1;"><g transform="translate(214.5603, 262.083674)"><path style="stroke:none" d="M 6.53125 -4.125 L 6.53125 -0.71875 C 6.53125 -0.445312 6.445312 -0.257812 6.28125 -0.15625 C 6.113281 -0.0507812 5.984375 0 5.890625 0 L 2.078125 0 C 1.972656 0 1.84375 -0.046875 1.6875 -0.140625 C 1.53125 -0.242188 1.453125 -0.4375 1.453125 -0.71875 L 1.453125 -4.125 C 1.453125 -4.382812 1.515625 -4.578125 1.640625 -4.703125 C 1.773438 -4.828125 1.910156 -4.890625 2.046875 -4.890625 L 5.890625 -4.890625 C 6.148438 -4.890625 6.320312 -4.800781 6.40625 -4.625 C 6.488281 -4.445312 6.53125 -4.28125 6.53125 -4.125 Z M 6.53125 -4.125 "/></g></g><g style="fill:#ff8400;fill-opacity:1;"><g transform="translate(227.727829, 262.083674)"><path style="stroke:none" d="M 16.109375 -21.828125 L 16.109375 -19.8125 C 16.109375 -19.5 16.066406 -19.269531 15.984375 -19.125 C 15.898438 -18.976562 15.71875 -18.90625 15.4375 -18.90625 L 11.59375 -18.90625 C 11.34375 -18.90625 11.171875 -18.96875 11.078125 -19.09375 C 10.984375 -19.226562 10.9375 -19.441406 10.9375 -19.734375 L 10.9375 -21.65625 C 10.9375 -22.070312 10.851562 -22.46875 10.6875 -22.84375 C 10.53125 -23.226562 10.289062 -23.539062 9.96875 -23.78125 C 9.65625 -24.03125 9.269531 -24.15625 8.8125 -24.15625 C 8.132812 -24.15625 7.585938 -23.90625 7.171875 -23.40625 C 6.753906 -22.914062 6.546875 -22.347656 6.546875 -21.703125 L 6.546875 -7.046875 C 6.546875 -6.617188 6.632812 -6.210938 6.8125 -5.828125 C 7 -5.441406 7.257812 -5.128906 7.59375 -4.890625 C 7.9375 -4.660156 8.34375 -4.546875 8.8125 -4.546875 C 9.570312 -4.546875 10.132812 -4.800781 10.5 -5.3125 C 10.863281 -5.820312 11.046875 -6.398438 11.046875 -7.046875 L 11.046875 -9.515625 C 11.046875 -9.828125 11.085938 -10.039062 11.171875 -10.15625 C 11.265625 -10.269531 11.429688 -10.328125 11.671875 -10.328125 L 15.546875 -10.328125 C 15.785156 -10.328125 15.957031 -10.273438 16.0625 -10.171875 C 16.175781 -10.078125 16.234375 -9.875 16.234375 -9.5625 L 16.234375 -6.734375 C 16.234375 -5.242188 15.894531 -3.957031 15.21875 -2.875 C 14.550781 -1.800781 13.65625 -0.976562 12.53125 -0.40625 C 11.40625 0.164062 10.148438 0.453125 8.765625 0.453125 C 7.734375 0.453125 6.75 0.289062 5.8125 -0.03125 C 4.882812 -0.351562 4.0625 -0.828125 3.34375 -1.453125 C 2.625 -2.078125 2.054688 -2.832031 1.640625 -3.71875 C 1.234375 -4.613281 1.03125 -5.617188 1.03125 -6.734375 L 1.03125 -21.9375 C 1.03125 -22.957031 1.21875 -23.90625 1.59375 -24.78125 C 1.976562 -25.65625 2.515625 -26.414062 3.203125 -27.0625 C 3.898438 -27.71875 4.71875 -28.222656 5.65625 -28.578125 C 6.59375 -28.941406 7.628906 -29.125 8.765625 -29.125 C 10.023438 -29.125 11.117188 -28.914062 12.046875 -28.5 C 12.972656 -28.082031 13.734375 -27.53125 14.328125 -26.84375 C 14.929688 -26.15625 15.378906 -25.375 15.671875 -24.5 C 15.960938 -23.632812 16.109375 -22.742188 16.109375 -21.828125 Z M 16.109375 -21.828125 "/></g></g><g style="fill:#ff8400;fill-opacity:1;"><g transform="translate(249.922567, 262.083674)"><path style="stroke:none" d="M 14.015625 0 L 2.203125 0 C 1.734375 0 1.5 -0.257812 1.5 -0.78125 L 1.5 -27.875 C 1.5 -28.414062 1.722656 -28.6875 2.171875 -28.6875 L 6.328125 -28.6875 C 6.773438 -28.6875 7 -28.414062 7 -27.875 L 7 -5 L 14.015625 -5 C 14.398438 -5 14.59375 -4.765625 14.59375 -4.296875 L 14.59375 -0.75 C 14.59375 -0.25 14.398438 0 14.015625 0 Z M 14.015625 0 "/></g></g><g style="fill:#ff8400;fill-opacity:1;"><g transform="translate(270.148408, 262.083674)"><path style="stroke:none" d="M 11.25 -7.046875 L 11.25 -27.859375 C 11.25 -28.078125 11.304688 -28.269531 11.421875 -28.4375 C 11.535156 -28.601562 11.703125 -28.6875 11.921875 -28.6875 L 16.125 -28.6875 C 16.363281 -28.6875 16.535156 -28.597656 16.640625 -28.421875 C 16.742188 -28.253906 16.796875 -28.066406 16.796875 -27.859375 L 16.796875 -6.734375 C 16.796875 -5.742188 16.585938 -4.8125 16.171875 -3.9375 C 15.753906 -3.0625 15.1875 -2.296875 14.46875 -1.640625 C 13.75 -0.984375 12.921875 -0.46875 11.984375 -0.09375 C 11.054688 0.269531 10.070312 0.453125 9.03125 0.453125 C 8 0.453125 7.015625 0.269531 6.078125 -0.09375 C 5.148438 -0.46875 4.328125 -0.984375 3.609375 -1.640625 C 2.898438 -2.296875 2.335938 -3.0625 1.921875 -3.9375 C 1.515625 -4.8125 1.3125 -5.742188 1.3125 -6.734375 L 1.3125 -27.875 C 1.3125 -28.101562 1.363281 -28.296875 1.46875 -28.453125 C 1.582031 -28.609375 1.707031 -28.6875 1.84375 -28.6875 L 6.21875 -28.6875 C 6.46875 -28.6875 6.632812 -28.609375 6.71875 -28.453125 C 6.800781 -28.296875 6.84375 -28.101562 6.84375 -27.875 L 6.84375 -7.046875 C 6.84375 -6.398438 7.035156 -5.820312 7.421875 -5.3125 C 7.804688 -4.800781 8.351562 -4.546875 9.0625 -4.546875 C 9.53125 -4.546875 9.925781 -4.660156 10.25 -4.890625 C 10.570312 -5.128906 10.816406 -5.441406 10.984375 -5.828125 C 11.160156 -6.210938 11.25 -6.617188 11.25 -7.046875 Z M 11.25 -7.046875 "/></g></g><g style="fill:#ff8400;fill-opacity:1;"><g transform="translate(293.42086, 262.083674)"><path style="stroke:none" d="M 11.03125 -7.359375 L 11.03125 -9.890625 C 11.03125 -10.773438 10.789062 -11.425781 10.3125 -11.84375 C 9.832031 -12.269531 9.285156 -12.484375 8.671875 -12.484375 L 6.609375 -12.484375 L 6.609375 -5 L 8.765625 -5 C 9.265625 -5 9.679688 -5.117188 10.015625 -5.359375 C 10.347656 -5.597656 10.597656 -5.894531 10.765625 -6.25 C 10.941406 -6.613281 11.03125 -6.984375 11.03125 -7.359375 Z M 10.84375 -19.15625 L 10.84375 -21.1875 C 10.84375 -22.039062 10.617188 -22.664062 10.171875 -23.0625 C 9.734375 -23.457031 9.175781 -23.65625 8.5 -23.65625 L 6.609375 -23.65625 L 6.609375 -16.9375 L 8.4375 -16.9375 C 8.738281 -16.9375 9.078125 -17 9.453125 -17.125 C 9.828125 -17.25 10.148438 -17.46875 10.421875 -17.78125 C 10.703125 -18.101562 10.84375 -18.5625 10.84375 -19.15625 Z M 16.078125 -21.5 L 16.078125 -19.4375 C 16.078125 -18.664062 15.914062 -17.953125 15.59375 -17.296875 C 15.269531 -16.648438 14.875 -16.113281 14.40625 -15.6875 C 13.9375 -15.257812 13.476562 -15 13.03125 -14.90625 C 13.320312 -14.820312 13.664062 -14.65625 14.0625 -14.40625 C 14.457031 -14.15625 14.847656 -13.804688 15.234375 -13.359375 C 15.617188 -12.921875 15.9375 -12.375 16.1875 -11.71875 C 16.4375 -11.0625 16.5625 -10.285156 16.5625 -9.390625 L 16.5625 -6.8125 C 16.5625 -5.8125 16.363281 -4.890625 15.96875 -4.046875 C 15.570312 -3.210938 15.039062 -2.492188 14.375 -1.890625 C 13.707031 -1.296875 12.945312 -0.832031 12.09375 -0.5 C 11.25 -0.164062 10.363281 0 9.4375 0 L 2.203125 0 C 1.734375 0 1.5 -0.257812 1.5 -0.78125 L 1.5 -27.875 C 1.5 -28.414062 1.734375 -28.6875 2.203125 -28.6875 L 8.796875 -28.6875 C 10.242188 -28.6875 11.507812 -28.367188 12.59375 -27.734375 C 13.6875 -27.109375 14.539062 -26.253906 15.15625 -25.171875 C 15.769531 -24.097656 16.078125 -22.875 16.078125 -21.5 Z M 16.078125 -21.5 "/></g></g><g clip-rule="nonzero" clip-path="url(#a65b64f2ef)"><path style=" stroke:none;fill-rule:evenodd;fill:#000000;fill-opacity:1;" d="M 210.011719 129.308594 C 213.058594 130.277344 214.84375 131.457031 214.84375 132.726562 C 214.84375 136.058594 202.53125 138.761719 187.339844 138.761719 C 172.148438 138.761719 159.835938 136.058594 159.835938 132.726562 C 159.835938 131.457031 161.617188 130.277344 164.664062 129.308594 C 167.746094 131.378906 176.730469 132.882812 187.339844 132.882812 C 197.945312 132.882812 206.933594 131.378906 210.011719 129.308594 Z M 179.511719 107.503906 C 181.53125 108.144531 196.019531 108.542969 198.433594 107.789062 C 200.847656 107.03125 199.113281 104.355469 197.453125 104.164062 C 195.792969 103.976562 198.378906 105.46875 196.660156 106.050781 C 192.773438 107.371094 178.53125 106.863281 179.511719 107.503906 Z M 170.328125 127.789062 L 172.171875 105.558594 C 172.316406 103.824219 173.605469 102.566406 175.339844 102.390625 C 185.183594 101.402344 189.492188 101.398438 199.335938 102.390625 C 201.070312 102.566406 202.363281 103.824219 202.507812 105.558594 L 204.351562 127.789062 C 200.027344 128.742188 194.003906 129.335938 187.339844 129.335938 C 180.675781 129.335938 174.652344 128.742188 170.328125 127.789062 Z M 170.328125 127.789062 "/></g><g clip-rule="nonzero" clip-path="url(#1a19ffd1cc)"><path style=" stroke:none;fill-rule:evenodd;fill:#000000;fill-opacity:1;" d="M 168.867188 163.121094 L 150.964844 177.070312 L 164.34375 178.011719 L 156.050781 184.417969 L 180.742188 222.304688 Z M 168.867188 163.121094 "/></g><g clip-rule="nonzero" clip-path="url(#1dfb3ddf84)"><path style=" stroke:none;fill-rule:evenodd;fill:#000000;fill-opacity:1;" d="M 205.808594 163.121094 L 223.714844 177.070312 L 210.332031 178.011719 L 218.625 184.417969 L 193.9375 222.304688 Z M 205.808594 163.121094 "/></g><path style=" stroke:none;fill-rule:evenodd;fill:#ff8400;fill-opacity:1;" d="M 172.667969 165.039062 L 175.765625 167.929688 L 182.621094 159.335938 L 184.464844 161.464844 L 190.214844 161.464844 L 192.058594 159.335938 L 198.914062 167.929688 L 202.011719 165.039062 L 198.546875 170.441406 L 193.976562 165.152344 L 190.214844 169.757812 L 196.480469 189.535156 L 187.339844 203.074219 L 178.195312 189.535156 L 184.464844 169.757812 L 180.703125 165.152344 L 176.132812 170.441406 Z M 172.667969 165.039062 "/></g></svg>